# xmcd CD database file generated by OrangeCD 6.2
#
# Track frame offsets:
#	183
#	22883
#	36145
#	53058
#	75758
#	93145
#	109070
#	122583
#	143170
#	162845
#	175983
#	195683
#	214170
#	231883
#	246458
#
# Disc length: 3590 seconds
#
# Revision: 1
# Processed by: cddbd v1.5.2PL0 Copyright (c) Steve Scherf et al.
# Submitted via: OrangeCD 6.2
#
DISCID=bc0e040f
DTITLE=Relite! - Revelation
DYEAR=1993
DGENRE=
TTITLE0=Revelation
TTITLE1=Song for Child
TTITLE2=Put a Little Love in Your Heart
TTITLE3=The River
TTITLE4=Operator
TTITLE5=Get Together
TTITLE6=Where the Heart is
TTITLE7=David's Promise
TTITLE8=Soon and Very Soon
TTITLE9=100 Words
TTITLE10=I'll Be There
TTITLE11=In This House
TTITLE12=Tears in Heaven
TTITLE13=Think
TTITLE14=The Dream
EXTD=
EXTT0=
EXTT1=
EXTT2=
EXTT3=
EXTT4=
EXTT5=
EXTT6=
EXTT7=
EXTT8=
EXTT9=
EXTT10=
EXTT11=
EXTT12=
EXTT13=
EXTT14=
PLAYORDER=
